<svg xmlns="http://www.w3.org/2000/svg" viewBox="0 0 512 512">
  <defs>
    <linearGradient id="grad" x1="0%" y1="0%" x2="100%" y2="100%">
      <stop offset="0%" style="stop-color:#F59E0B;stop-opacity:1" />
      <stop offset="100%" style="stop-color:#EA580C;stop-opacity:1" />
    </linearGradient>
    <filter id="shadow" x="-20%" y="-20%" width="140%" height="140%">
      <feDropShadow dx="0" dy="4" stdDeviation="4" flood-opacity="0.25"/>
    </filter>
  </defs>
  
  <!-- Background -->
  <rect width="512" height="512" rx="128" fill="url(#grad)" />
  
  <!-- Chef Hat Icon -->
  <g transform="translate(106, 106) scale(0.6)" fill="white" filter="url(#shadow)">
    <path d="M256 32C192 32 144 80 144 144c0 8.8 1.8 17.2 5 25-47.6 11.6-82 55.6-82 105 0 60.8 49.2 110 110 110h158c60.8 0 110-49.2 110-110 0-49.4-34.4-93.4-82-105 3.2-7.8 5-16.2 5-25 0-64-48-112-112-112z"/>
    <rect x="144" y="400" width="224" height="64" rx="16" />
  </g>
</svg>
